<svg width="70" height="149" viewBox="0 0 70 149" fill="none" xmlns="http://www.w3.org/2000/svg">
  <style>
    @import url('https://fonts.googleapis.com/css2?family=Roboto');
  </style>
  <rect id="background" width="70" height="149" fill="#ffffff" />
  <g id="tree" transform="translate(0 149)">
    <g id="highlight" transform="translate(0 -14.0)">
      <rect x="23.0" y="-134.0" width="40.0" height="14.0" fill="rgb(242, 212, 209)" />
    </g>
    <path stroke="#000000" d="M35.1,-132.3 L23.4,-115.3" />
    <path stroke="#000000" d="M23.4,-99.2 L11.7,-82.2" />
    <path stroke="#000000" d="M23.4,-99.2 L35.1,-82.2" />
    <path stroke="#000000" d="M35.1,-66.1 L4.3,-49.1" />
    <path stroke="#000000" d="M35.1,-66.1 L18.8,-49.1" />
    <path stroke="#000000" d="M35.1,-66.1 L42.2,-49.1" />
    <path stroke="#000000" d="M42.2,-33.0 L42.2,-16.0" />
    <path stroke="#000000" d="M35.1,-66.1 L65.9,-49.1" />
    <path stroke="#000000" d="M35.1,-132.3 L46.7,-115.3" />
    <text fill="#000000" font-size="11" x="9.8" y="-71.1">-</text>
    <text fill="#000000" font-size="11" x="1.0" y="-38.0">a</text>
    <text fill="#000000" font-size="11" x="22.7" y="-71.1">expr</text>
    <text fill="#000000" font-size="11" x="11.0" y="-104.2">expr</text>
    <text fill="#000000" font-size="11" x="16.7" y="-38.0">[</text>
    <text fill="#000000" font-size="11" x="24.5" y="-137.3">&#60;stat&#62;</text>
    <text fill="#000000" font-size="11" x="63.8" y="-38.0">]</text>
    <text fill="#000000" font-size="11" x="40.8" y="-5.0">i</text>
    <text fill="#000000" font-size="11" x="30.0" y="-38.0">expr</text>
    <text fill="#000000" font-size="11" x="44.8" y="-104.2">;</text>
  </g>
</svg>
