<?xml version="1.0" encoding="utf-8"?>
<svg xmlns="http://www.w3.org/2000/svg" viewBox="0 0 563 314" width="563" height="314">
  <g transform="translate(0, 314) scale(1,-1)">
    <path d="M 162.092 297.792 L 58.85 280.792" fill="none" stroke="black" stroke-width="0.3" />
    <path d="M 58.85 264.704 L 13.287 247.704" fill="none" stroke="black" stroke-width="0.3" />
    <path d="M 13.287 231.616 L 13.287 214.616" fill="none" stroke="black" stroke-width="0.3" />
    <path d="M 58.85 264.704 L 38.067 247.704" fill="none" stroke="black" stroke-width="0.3" />
    <path d="M 58.85 264.704 L 55.168 247.704" fill="none" stroke="black" stroke-width="0.3" />
    <path d="M 58.85 264.704 L 81.169 247.704" fill="none" stroke="black" stroke-width="0.3" />
    <path d="M 81.169 231.616 L 81.169 214.616" fill="none" stroke="black" stroke-width="0.3" />
    <path d="M 58.85 264.704 L 104.414 247.704" fill="none" stroke="black" stroke-width="0.3" />
    <path d="M 162.092 297.792 L 265.333 280.792" fill="none" stroke="black" stroke-width="0.3" />
    <path d="M 265.333 264.704 L 127.554 247.704" fill="none" stroke="black" stroke-width="0.3" />
    <path d="M 127.554 231.616 L 127.554 214.616" fill="none" stroke="black" stroke-width="0.3" />
    <path d="M 265.333 264.704 L 159.33 247.704" fill="none" stroke="black" stroke-width="0.3" />
    <path d="M 265.333 264.704 L 180.963 247.704" fill="none" stroke="black" stroke-width="0.3" />
    <path d="M 265.333 264.704 L 241.652 247.704" fill="none" stroke="black" stroke-width="0.3" />
    <path d="M 241.652 231.616 L 241.652 214.616" fill="none" stroke="black" stroke-width="0.3" />
    <path d="M 241.652 198.528 L 229.381 181.528" fill="none" stroke="black" stroke-width="0.3" />
    <path d="M 229.381 165.44 L 229.381 148.44" fill="none" stroke="black" stroke-width="0.3" />
    <path d="M 241.652 198.528 L 253.924 181.528" fill="none" stroke="black" stroke-width="0.3" />
    <path d="M 265.333 264.704 L 339.855 247.704" fill="none" stroke="black" stroke-width="0.3" />
    <path d="M 265.333 264.704 L 403.112 247.704" fill="none" stroke="black" stroke-width="0.3" />
    <path d="M 403.112 231.616 L 308.961 214.616" fill="none" stroke="black" stroke-width="0.3" />
    <path d="M 403.112 231.616 L 332.008 214.616" fill="none" stroke="black" stroke-width="0.3" />
    <path d="M 332.008 198.528 L 269.645 181.528" fill="none" stroke="black" stroke-width="0.3" />
    <path d="M 332.008 198.528 L 294.501 181.528" fill="none" stroke="black" stroke-width="0.3" />
    <path d="M 294.501 165.44 L 263.892 148.44" fill="none" stroke="black" stroke-width="0.3" />
    <path d="M 263.892 132.352 L 263.891 115.352" fill="none" stroke="black" stroke-width="0.3" />
    <path d="M 294.501 165.44 L 294.501 148.44" fill="none" stroke="black" stroke-width="0.3" />
    <path d="M 294.501 165.44 L 325.111 148.44" fill="none" stroke="black" stroke-width="0.3" />
    <path d="M 325.111 132.352 L 325.111 115.352" fill="none" stroke="black" stroke-width="0.3" />
    <path d="M 332.008 198.528 L 345.357 181.528" fill="none" stroke="black" stroke-width="0.3" />
    <path d="M 332.008 198.528 L 394.371 181.528" fill="none" stroke="black" stroke-width="0.3" />
    <path d="M 394.371 165.44 L 363.536 148.44" fill="none" stroke="black" stroke-width="0.3" />
    <path d="M 394.371 165.44 L 401.961 148.44" fill="none" stroke="black" stroke-width="0.3" />
    <path d="M 401.961 132.352 L 401.961 115.352" fill="none" stroke="black" stroke-width="0.3" />
    <path d="M 394.371 165.44 L 425.206 148.44" fill="none" stroke="black" stroke-width="0.3" />
    <path d="M 403.112 231.616 L 474.216 214.616" fill="none" stroke="black" stroke-width="0.3" />
    <path d="M 474.216 198.528 L 443.381 181.528" fill="none" stroke="black" stroke-width="0.3" />
    <path d="M 474.216 198.528 L 481.806 181.528" fill="none" stroke="black" stroke-width="0.3" />
    <path d="M 481.806 165.44 L 448.451 148.44" fill="none" stroke="black" stroke-width="0.3" />
    <path d="M 448.451 132.352 L 448.45 115.352" fill="none" stroke="black" stroke-width="0.3" />
    <path d="M 481.806 165.44 L 481.806 148.44" fill="none" stroke="black" stroke-width="0.3" />
    <path d="M 481.806 165.44 L 515.162 148.44" fill="none" stroke="black" stroke-width="0.3" />
    <path d="M 515.162 132.352 L 471.195 115.352" fill="none" stroke="black" stroke-width="0.3" />
    <path d="M 515.162 132.352 L 492.829 115.352" fill="none" stroke="black" stroke-width="0.3" />
    <path d="M 515.162 132.352 L 525.979 115.352" fill="none" stroke="black" stroke-width="0.3" />
    <path d="M 525.979 99.264 L 525.979 82.264" fill="none" stroke="black" stroke-width="0.3" />
    <path d="M 525.979 66.176 L 502.602 49.176" fill="none" stroke="black" stroke-width="0.3" />
    <path d="M 502.602 33.088 L 502.602 16.088" fill="none" stroke="black" stroke-width="0.3" />
    <path d="M 525.979 66.176 L 525.979 49.176" fill="none" stroke="black" stroke-width="0.3" />
    <path d="M 525.979 66.176 L 549.356 49.176" fill="none" stroke="black" stroke-width="0.3" />
    <path d="M 549.356 33.088 L 549.356 16.088" fill="none" stroke="black" stroke-width="0.3" />
    <path d="M 515.162 132.352 L 559.13 115.352" fill="none" stroke="black" stroke-width="0.3" />
    <path d="M 474.216 198.528 L 505.051 181.528" fill="none" stroke="black" stroke-width="0.3" />
    <path d="M 403.112 231.616 L 497.263 214.616" fill="none" stroke="black" stroke-width="0.3" />
    <text transform="scale(1,-1)" x="479.056" y="-137.352" font-family="ArialMT" font-size="11" fill="black"
      stroke="none">*</text>
    <text transform="scale(1,-1)" x="426.348" y="-170.44" font-family="ArialMT" font-size="11" fill="black"
      stroke="none">return</text>
    <text transform="scale(1,-1)" x="305.463" y="-203.528" font-family="ArialMT" font-size="11" fill="black"
      stroke="none">{</text>
    <text transform="scale(1,-1)" x="222.209" y="-137.352" font-family="ArialMT" font-size="11" fill="black"
      stroke="none">int</text>
    <text transform="scale(1,-1)" x="312.719" y="-137.352" font-family="ArialMT" font-size="11" fill="black"
      stroke="none">expr</text>
    <text transform="scale(1,-1)" x="68.777" y="-236.616" font-family="ArialMT" font-size="11" fill="black"
      stroke="none">expr</text>
    <text transform="scale(1,-1)" x="536.965" y="-38.088" font-family="ArialMT" font-size="11" fill="black"
      stroke="none">expr</text>
    <text transform="scale(1,-1)" x="102.56" y="-236.616" font-family="ArialMT" font-size="11" fill="black"
      stroke="none">;</text>
    <text transform="scale(1,-1)" x="502.771" y="-137.352" font-family="ArialMT" font-size="11" fill="black"
      stroke="none">expr</text>
    <text transform="scale(1,-1)" x="115.267" y="-236.616" font-family="ArialMT" font-size="11" fill="black"
      stroke="none">type</text>
    <text transform="scale(1,-1)" x="469.415" y="-170.44" font-family="ArialMT" font-size="11" fill="black"
      stroke="none">expr</text>
    <text transform="scale(1,-1)" x="463.667" y="-203.528" font-family="ArialMT" font-size="11" fill="black"
      stroke="none">stat</text>
    <text transform="scale(1,-1)" x="460.707" y="-104.264" font-family="ArialMT" font-size="11" fill="black"
      stroke="none">fact</text>
    <text transform="scale(1,-1)" x="423.352" y="-137.352" font-family="ArialMT" font-size="11" fill="black"
      stroke="none">;</text>
    <text transform="scale(1,-1)" x="523.994" y="-38.088" font-family="ArialMT" font-size="11" fill="black"
      stroke="none">-</text>
    <text transform="scale(1,-1)" x="194.974" y="-203.528" font-family="ArialMT" font-size="11" fill="black"
      stroke="none">formalParameter</text>
    <text transform="scale(1,-1)" x="490.21" y="-38.088" font-family="ArialMT" font-size="11" fill="black"
      stroke="none">expr</text>
    <text transform="scale(1,-1)" x="503.198" y="-170.44" font-family="ArialMT" font-size="11" fill="black"
      stroke="none">;</text>
    <text transform="scale(1,-1)" x="250.668" y="-170.44" font-family="ArialMT" font-size="11" fill="black"
      stroke="none">x</text>
    <text transform="scale(1,-1)" x="153.715" y="-302.792" font-family="ArialMT" font-size="11" fill="black"
      stroke="none">file</text>
    <text transform="scale(1,-1)" x="398.463" y="-104.264" font-family="ArialMT" font-size="11" fill="black"
      stroke="none">1</text>
    <text transform="scale(1,-1)" x="503.974" y="-104.264" font-family="ArialMT" font-size="11" fill="black"
      stroke="none">exprList</text>
    <text transform="scale(1,-1)" x="6.115" y="-203.528" font-family="ArialMT" font-size="11" fill="black"
      stroke="none">int</text>
    <text transform="scale(1,-1)" x="120.382" y="-203.528" font-family="ArialMT" font-size="11" fill="black"
      stroke="none">int</text>
    <text transform="scale(1,-1)" x="388.515" y="-236.616" font-family="ArialMT" font-size="11" fill="black"
      stroke="none">block</text>
    <text transform="scale(1,-1)" x="321.613" y="-104.264" font-family="ArialMT" font-size="11" fill="black"
      stroke="none">0</text>
    <text transform="scale(1,-1)" x="490.684" y="-104.264" font-family="ArialMT" font-size="11" fill="black"
      stroke="none">(</text>
    <text transform="scale(1,-1)" x="230.688" y="-269.704" font-family="ArialMT" font-size="11" fill="black"
      stroke="none">functionDecl</text>
    <text transform="scale(1,-1)" x="285.283" y="-137.352" font-family="ArialMT" font-size="11" fill="black"
      stroke="none">==</text>
    <text transform="scale(1,-1)" x="34.574" y="-236.616" font-family="ArialMT" font-size="11" fill="black"
      stroke="none">g</text>
    <text transform="scale(1,-1)" x="436.059" y="-137.352" font-family="ArialMT" font-size="11" fill="black"
      stroke="none">expr</text>
    <text transform="scale(1,-1)" x="251.5" y="-137.352" font-family="ArialMT" font-size="11" fill="black"
      stroke="none">expr</text>
    <text transform="scale(1,-1)" x="499.346" y="-5" font-family="ArialMT" font-size="11" fill="black"
      stroke="none">x</text>
    <text transform="scale(1,-1)" x="37.791" y="-269.704" font-family="ArialMT" font-size="11" fill="black"
      stroke="none">varDecl</text>
    <text transform="scale(1,-1)" x="545.858" y="-5" font-family="ArialMT" font-size="11" fill="black"
      stroke="none">1</text>
    <text transform="scale(1,-1)" x="445.194" y="-104.264" font-family="ArialMT" font-size="11" fill="black"
      stroke="none">x</text>
    <text transform="scale(1,-1)" x="346.502" y="-137.352" font-family="ArialMT" font-size="11" fill="black"
      stroke="none">return</text>
    <text transform="scale(1,-1)" x="321.459" y="-203.528" font-family="ArialMT" font-size="11" fill="black"
      stroke="none">stat</text>
    <text transform="scale(1,-1)" x="192.108" y="-236.616" font-family="ArialMT" font-size="11" fill="black"
      stroke="none">formalParameters</text>
    <text transform="scale(1,-1)" x="77.671" y="-203.528" font-family="ArialMT" font-size="11" fill="black"
      stroke="none">9</text>
    <text transform="scale(1,-1)" x="389.569" y="-137.352" font-family="ArialMT" font-size="11" fill="black"
      stroke="none">expr</text>
    <text transform="scale(1,-1)" x="282.11" y="-170.44" font-family="ArialMT" font-size="11" fill="black"
      stroke="none">expr</text>
    <text transform="scale(1,-1)" x="383.822" y="-170.44" font-family="ArialMT" font-size="11" fill="black"
      stroke="none">stat</text>
    <text transform="scale(1,-1)" x="178.818" y="-236.616" font-family="ArialMT" font-size="11" fill="black"
      stroke="none">(</text>
    <text transform="scale(1,-1)" x="1" y="-236.616" font-family="ArialMT" font-size="11" fill="black"
      stroke="none">type</text>
    <text transform="scale(1,-1)" x="148.841" y="-236.616" font-family="ArialMT" font-size="11" fill="black"
      stroke="none">fact</text>
    <text transform="scale(1,-1)" x="266.18" y="-170.44" font-family="ArialMT" font-size="11" fill="black"
      stroke="none">if</text>
    <text transform="scale(1,-1)" x="260.636" y="-104.264" font-family="ArialMT" font-size="11" fill="black"
      stroke="none">x</text>
    <text transform="scale(1,-1)" x="332.845" y="-170.44" font-family="ArialMT" font-size="11" fill="black"
      stroke="none">then</text>
    <text transform="scale(1,-1)" x="513.588" y="-71.176" font-family="ArialMT" font-size="11" fill="black"
      stroke="none">expr</text>
    <text transform="scale(1,-1)" x="217.094" y="-170.44" font-family="ArialMT" font-size="11" fill="black"
      stroke="none">type</text>
    <text transform="scale(1,-1)" x="556.985" y="-104.264" font-family="ArialMT" font-size="11" fill="black"
      stroke="none">)</text>
    <text transform="scale(1,-1)" x="337.71" y="-236.616" font-family="ArialMT" font-size="11" fill="black"
      stroke="none">)</text>
    <text transform="scale(1,-1)" x="493.765" y="-203.528" font-family="ArialMT" font-size="11" fill="black"
      stroke="none">}</text>
    <text transform="scale(1,-1)" x="50.559" y="-236.616" font-family="ArialMT" font-size="11" fill="black"
      stroke="none">=</text>
  </g>
</svg>
