<?xml version="1.0" encoding="utf-8"?>
<svg xmlns="http://www.w3.org/2000/svg" viewBox="0 0 219 182" width="219" height="182">
  <g transform="translate(0, 182) scale(1 -1)">
    <path d="M 59.784 66.176 l 0 16.088 l 76.525 0 l 0 -16.088 l -76.525 0 Z" fill="rgb(242, 212, 209)" stroke="none" />
    <path d="M 132.262 165.44 L 70.317 148.44" fill="none" stroke="black" stroke-width="0.3" />
    <path d="M 70.317 132.352 L 56.951 115.352" fill="none" stroke="black" stroke-width="0.3" />
    <path d="M 56.951 99.264 L 15.856 82.264" fill="none" stroke="black" stroke-width="0.3" />
    <path d="M 56.951 99.264 L 39.392 82.264" fill="none" stroke="black" stroke-width="0.3" />
    <path d="M 39.392 66.176 L 13.392 49.176" fill="none" stroke="black" stroke-width="0.3" />
    <path d="M 13.392 33.088 L 13.392 16.088" fill="none" stroke="black" stroke-width="0.3" />
    <path d="M 39.392 66.176 L 39.392 49.176" fill="none" stroke="black" stroke-width="0.3" />
    <path d="M 39.392 66.176 L 65.393 49.176" fill="none" stroke="black" stroke-width="0.3" />
    <path d="M 65.393 33.088 L 65.393 16.088" fill="none" stroke="black" stroke-width="0.3" />
    <path d="M 56.951 99.264 L 98.046 82.264" fill="none" stroke="black" stroke-width="0.3" />
    <path d="M 70.317 132.352 L 83.683 115.352" fill="none" stroke="black" stroke-width="0.3" />
    <path d="M 132.262 165.44 L 194.208 148.44" fill="none" stroke="black" stroke-width="0.3" />
    <path d="M 194.208 132.352 L 180.842 115.352" fill="none" stroke="black" stroke-width="0.3" />
    <path d="M 180.842 99.264 L 156.7 82.264" fill="none" stroke="black" stroke-width="0.3" />
    <path d="M 156.7 66.176 L 156.7 49.176" fill="none" stroke="black" stroke-width="0.3" />
    <path d="M 180.842 99.264 L 180.842 82.264" fill="none" stroke="black" stroke-width="0.3" />
    <path d="M 180.842 99.264 L 204.983 82.264" fill="none" stroke="black" stroke-width="0.3" />
    <path d="M 204.983 66.176 L 204.983 49.176" fill="none" stroke="black" stroke-width="0.3" />
    <path d="M 194.208 132.352 L 207.574 115.352" fill="none" stroke="black" stroke-width="0.3" />
    <text transform="scale(1 -1)" x="60.784" y="-71.176" font-family="ArialMT" font-size="11" fill="black"
      stroke="none">&lt;missing &#39;)&#39;&gt;</text>
    <text transform="scale(1 -1)" x="53.001" y="-38.088" font-family="ArialMT" font-size="11" fill="black"
      stroke="none">expr</text>
    <text transform="scale(1 -1)" x="78.342" y="-104.264" font-family="ArialMT" font-size="11" fill="black"
      stroke="none">\n</text>
    <text transform="scale(1 -1)" x="178.092" y="-71.176" font-family="ArialMT" font-size="11" fill="black"
      stroke="none">*</text>
    <text transform="scale(1 -1)" x="168.45" y="-104.264" font-family="ArialMT" font-size="11" fill="black"
      stroke="none">expr</text>
    <text transform="scale(1 -1)" x="59.768" y="-137.352" font-family="ArialMT" font-size="11" fill="black"
      stroke="none">stat</text>
    <text transform="scale(1 -1)" x="27.001" y="-71.176" font-family="ArialMT" font-size="11" fill="black"
      stroke="none">expr</text>
    <text transform="scale(1 -1)" x="13.711" y="-71.176" font-family="ArialMT" font-size="11" fill="black"
      stroke="none">(</text>
    <text transform="scale(1 -1)" x="1" y="-38.088" font-family="ArialMT" font-size="11" fill="black"
      stroke="none">expr</text>
    <text transform="scale(1 -1)" x="34.783" y="-38.088" font-family="ArialMT" font-size="11" fill="black"
      stroke="none">+</text>
    <text transform="scale(1 -1)" x="149.704" y="-38.088" font-family="ArialMT" font-size="11" fill="black"
      stroke="none">45</text>
    <text transform="scale(1 -1)" x="194.489" y="-38.088" font-family="ArialMT" font-size="11" fill="black"
      stroke="none">894</text>
    <text transform="scale(1 -1)" x="202.233" y="-104.264" font-family="ArialMT" font-size="11" fill="black"
      stroke="none">\n</text>
    <text transform="scale(1 -1)" x="61.895" y="-5" font-family="ArialMT" font-size="11" fill="black"
      stroke="none">2</text>
    <text transform="scale(1 -1)" x="192.592" y="-71.176" font-family="ArialMT" font-size="11" fill="black"
      stroke="none">expr</text>
    <text transform="scale(1 -1)" x="144.309" y="-71.176" font-family="ArialMT" font-size="11" fill="black"
      stroke="none">expr</text>
    <text transform="scale(1 -1)" x="183.659" y="-137.352" font-family="ArialMT" font-size="11" fill="black"
      stroke="none">stat</text>
    <text transform="scale(1 -1)" x="119.651" y="-170.44" font-family="ArialMT" font-size="11" fill="black"
      stroke="none">prog</text>
    <text transform="scale(1 -1)" x="44.559" y="-104.264" font-family="ArialMT" font-size="11" fill="black"
      stroke="none">expr</text>
    <text transform="scale(1 -1)" x="9.894" y="-5" font-family="ArialMT" font-size="11" fill="black"
      stroke="none">1</text>
  </g>
</svg>
